<svg xmlns="http://www.w3.org/2000/svg" viewBox="0 0 159 159"><defs><style>.cls-1{fill:#fff;}.cls-2{fill:#007acc;}</style></defs><title>like</title><g id="Lager_2" data-name="Lager 2"><g id="heart"><g id="original"><g id="Lager_2-2" data-name="Lager 2-2"><circle class="cls-1" cx="79.5" cy="79.5" r="79.5"/></g><g id="Lager_3" data-name="Lager 3"><path class="cls-1" d="M81.94,68.86C79.06,52.5,56.84,56,56,56.5c-14.67,5.41-16.44,23.26-13.09,31,2.94,6.8,16,12,22,16s17,20,17,20"/><path class="cls-1" d="M81.5,68.86C84.38,52.5,106.6,56,107.41,56.5c14.67,5.41,16.44,23.26,13.09,31-2.94,6.8-16,12-22,16s-17,20-17,20"/></g></g><polygon id="triangle" class="cls-1" points="81.5 123.5 98.09 95.66 114.67 67.82 81.5 67.82 48.33 67.82 64.91 95.66 81.5 123.5"/><g id="original-2" data-name="original"><g id="Lager_2-2-2" data-name="Lager 2-2"><circle class="cls-2" cx="79.5" cy="79.5" r="79.5"/></g><g id="Lager_3-2" data-name="Lager 3"><path class="cls-1" d="M81.94,68.86C79.06,52.5,56.84,56,56,56.5c-14.67,5.41-16.44,23.26-13.09,31,2.94,6.8,16,12,22,16s17,20,17,20"/><path class="cls-1" d="M81.5,68.86C84.38,52.5,106.6,56,107.41,56.5c14.67,5.41,16.44,23.26,13.09,31-2.94,6.8-16,12-22,16s-17,20-17,20"/></g></g><polygon id="triangle-2" data-name="triangle" class="cls-1" points="81.5 123.5 98.09 95.66 114.67 67.82 81.5 67.82 48.33 67.82 64.91 95.66 81.5 123.5"/></g></g></svg>